<svg width="24" height="24" viewBox="0 0 24 24" fill="none" xmlns="http://www.w3.org/2000/svg">
<mask id="mask0_312_116" style="mask-type:alpha" maskUnits="userSpaceOnUse" x="0" y="0" width="24" height="24">
<rect width="24" height="24" fill="#D9D9D9"/>
</mask>
<g mask="url(#mask0_312_116)">
<path d="M4.5 21.5V6.5H8.25V6.25C8.25 5.21417 8.616 4.33017 9.348 3.598C10.0802 2.866 10.9642 2.5 12 2.5C13.0358 2.5 13.9198 2.866 14.652 3.598C15.384 4.33017 15.75 5.21417 15.75 6.25V6.5H19.5V21.5H4.5ZM6 20H18V8H15.75V11H14.25V8H9.75V11H8.25V8H6V20ZM9.75 6.5H14.25V6.25C14.25 5.62317 14.0317 5.09142 13.5953 4.65475C13.1588 4.21825 12.627 4 12 4C11.373 4 10.8413 4.21825 10.4048 4.65475C9.96825 5.09142 9.75 5.62317 9.75 6.25V6.5Z" fill="black"/>
</g>
</svg>
