<svg width="24" height="24" viewBox="0 0 24 24" fill="none" xmlns="http://www.w3.org/2000/svg">
<mask id="mask0_2079_3871" style="mask-type:alpha" maskUnits="userSpaceOnUse" x="0" y="0" width="24" height="24">
<rect width="24" height="24" fill="#D9D9D9"/>
</mask>
<g mask="url(#mask0_2079_3871)">
<path d="M7.5 19C6.80767 19 6.21792 18.7564 5.73075 18.2693C5.24359 17.7821 5 17.1923 5 16.5H2.76925L2.9885 15.5H5.25575C5.43659 15.0552 5.72825 14.6939 6.13075 14.4163C6.53325 14.1388 6.98967 14 7.5 14C8.01034 14 8.46675 14.1388 8.86925 14.4163C9.27175 14.6939 9.56342 15.0552 9.74425 15.5H14.3615L16.5578 6H5.60775L5.63075 5.902C5.67942 5.64033 5.806 5.42458 6.0105 5.25475C6.215 5.08492 6.45634 5 6.7345 5H17.8078L16.998 8.5H19.077L21.7885 12.1155L20.923 16.5H19.7693C19.7693 17.1923 19.5257 17.7821 19.0385 18.2693C18.5513 18.7564 17.9616 19 17.2693 19C16.5769 19 15.9872 18.7564 15.5 18.2693C15.0128 17.7821 14.7693 17.1923 14.7693 16.5H10C10 17.1923 9.75642 17.7821 9.26925 18.2693C8.78209 18.7564 8.19234 19 7.5 19ZM15.8865 13.25H20.5385L20.7155 12.3595L18.577 9.5H16.7595L15.8865 13.25ZM16.3155 7.002L16.5578 6L14.3615 15.5L14.6038 14.498L15.3963 11.002L16.3155 7.002ZM1.673 12.998L1.923 11.998H6.40375L6.15375 12.998H1.673ZM3.673 9.502L3.923 8.502H9.40375L9.15375 9.502H3.673ZM7.5 18C7.9115 18 8.26442 17.8529 8.55875 17.5588C8.85292 17.2644 9 16.9115 9 16.5C9 16.0885 8.85292 15.7356 8.55875 15.4412C8.26442 15.1471 7.9115 15 7.5 15C7.0885 15 6.73559 15.1471 6.44125 15.4412C6.14709 15.7356 6 16.0885 6 16.5C6 16.9115 6.14709 17.2644 6.44125 17.5588C6.73559 17.8529 7.0885 18 7.5 18ZM17.2693 18C17.6808 18 18.0337 17.8529 18.328 17.5588C18.6222 17.2644 18.7693 16.9115 18.7693 16.5C18.7693 16.0885 18.6222 15.7356 18.328 15.4412C18.0337 15.1471 17.6808 15 17.2693 15C16.8578 15 16.5048 15.1471 16.2105 15.4412C15.9163 15.7356 15.7693 16.0885 15.7693 16.5C15.7693 16.9115 15.9163 17.2644 16.2105 17.5588C16.5048 17.8529 16.8578 18 17.2693 18Z" fill="black"/>
</g>
</svg>
