<svg width="24" height="24" viewBox="0 0 24 24" fill="none" xmlns="http://www.w3.org/2000/svg">
<mask id="mask0_2079_3720" style="mask-type:alpha" maskUnits="userSpaceOnUse" x="0" y="0" width="24" height="24">
<rect width="24" height="24" fill="#D9D9D9"/>
</mask>
<g mask="url(#mask0_2079_3720)">
<path d="M12 19.6537L11.2423 18.9692C9.61025 17.4782 8.26025 16.202 7.19225 15.1405C6.12442 14.0788 5.2815 13.1426 4.6635 12.3317C4.0455 11.5209 3.61375 10.7872 3.36825 10.1307C3.12275 9.47441 3 8.81416 3 8.14999C3 6.87816 3.43208 5.81024 4.29625 4.94624C5.16025 4.08208 6.22817 3.64999 7.5 3.64999C8.3795 3.64999 9.2045 3.87499 9.975 4.32499C10.7455 4.77499 11.4205 5.42949 12 6.28849C12.5795 5.42949 13.2545 4.77499 14.025 4.32499C14.7955 3.87499 15.6205 3.64999 16.5 3.64999C17.7718 3.64999 18.8398 4.08208 19.7038 4.94624C20.5679 5.81024 21 6.87816 21 8.14999C21 8.81416 20.8773 9.47441 20.6318 10.1307C20.3862 10.7872 19.9545 11.5209 19.3365 12.3317C18.7185 13.1426 17.8787 14.0788 16.8173 15.1405C15.7558 16.202 14.4026 17.4782 12.7578 18.9692L12 19.6537ZM12 18.3C13.6 16.8538 14.9167 15.6151 15.95 14.5837C16.9833 13.5522 17.8 12.6573 18.4 11.899C19 11.1407 19.4167 10.4689 19.65 9.88374C19.8833 9.29841 20 8.72049 20 8.14999C20 7.14999 19.6667 6.31666 19 5.64999C18.3333 4.98333 17.5 4.64999 16.5 4.64999C15.7038 4.64999 14.9692 4.87724 14.2962 5.33174C13.6231 5.78624 13.0205 6.47049 12.4885 7.38449H11.5115C10.9667 6.45766 10.3609 5.77016 9.69425 5.32199C9.02758 4.87399 8.29617 4.64999 7.5 4.64999C6.51283 4.64999 5.68267 4.98333 5.0095 5.64999C4.3365 6.31666 4 7.14999 4 8.14999C4 8.72049 4.11667 9.29841 4.35 9.88374C4.58333 10.4689 5 11.1407 5.6 11.899C6.2 12.6573 7.01667 13.549 8.05 14.574C9.08333 15.599 10.4 16.841 12 18.3Z" fill="black"/>
</g>
</svg>
