<svg width="24" height="24" viewBox="0 0 24 24" fill="none" xmlns="http://www.w3.org/2000/svg">
<mask id="mask0_2355_3048" style="mask-type:alpha" maskUnits="userSpaceOnUse" x="0" y="0" width="24" height="24">
<rect width="24" height="24" fill="#D9D9D9"/>
</mask>
<g mask="url(#mask0_2355_3048)">
<path d="M5.06925 20C4.76375 20 4.50917 19.9 4.3055 19.7C4.10183 19.5 4 19.25 4 18.95V16.5155C4 16.2475 4.08458 16.01 4.25375 15.803C4.42308 15.5958 4.64367 15.4589 4.9155 15.3923L7.01925 14.9615C7.26542 14.9282 7.49008 14.9394 7.69325 14.9952C7.89642 15.0509 8.07942 15.1666 8.24225 15.3422L10.3808 17.5193C11.1808 17.0756 11.9153 16.6041 12.5845 16.1048C13.2538 15.6054 13.8788 15.0653 14.4595 14.4845C15.0223 13.9128 15.5522 13.3074 16.049 12.6683C16.5458 12.0291 16.9993 11.3371 17.4095 10.5923L15.2155 8.54625C15.0565 8.41292 14.9456 8.24175 14.8828 8.03275C14.8199 7.82375 14.8116 7.5795 14.8577 7.3L15.3538 4.9155C15.4256 4.6475 15.5628 4.42792 15.7655 4.25675C15.968 4.08558 16.2052 4 16.477 4H18.95C19.25 4 19.5 4.10183 19.7 4.3055C19.9 4.50917 20 4.76375 20 5.06925C20 6.75508 19.5779 8.48008 18.7337 10.2443C17.8894 12.0084 16.7077 13.6532 15.1885 15.1788C13.6692 16.7044 12.0243 17.8894 10.2537 18.7337C8.48325 19.5779 6.75508 20 5.06925 20ZM17.873 9.65375C18.2077 8.90125 18.4724 8.15317 18.6673 7.4095C18.8621 6.666 18.9692 5.95258 18.9885 5.26925C18.9885 5.19225 18.9628 5.12817 18.9115 5.077C18.8602 5.02567 18.7961 5 18.7193 5H16.673C16.5705 5 16.4872 5.02567 16.423 5.077C16.359 5.12817 16.3142 5.20508 16.2885 5.30775L15.8385 7.427C15.8128 7.50383 15.8096 7.58717 15.8288 7.677C15.8481 7.76667 15.8898 7.83717 15.9538 7.8885L17.873 9.65375ZM9.423 17.977L7.54225 16.0577C7.47825 15.9936 7.41733 15.9519 7.3595 15.9327C7.30183 15.9134 7.23458 15.9166 7.15775 15.9423L5.30775 16.327C5.20508 16.3527 5.12817 16.3975 5.077 16.4615C5.02567 16.5257 5 16.609 5 16.7115V18.7193C5 18.7961 5.02567 18.8602 5.077 18.9115C5.12817 18.9628 5.19225 18.9885 5.26925 18.9885C5.83725 18.977 6.50267 18.8892 7.2655 18.725C8.02817 18.5608 8.74733 18.3115 9.423 17.977Z" fill="black"/>
</g>
</svg>
