<svg width="24" height="24" viewBox="0 0 24 24" fill="none" xmlns="http://www.w3.org/2000/svg">
<mask id="mask0_2066_2225" style="mask-type:alpha" maskUnits="userSpaceOnUse" x="0" y="0" width="24" height="24">
<rect width="24" height="24" fill="#D9D9D9"/>
</mask>
<g mask="url(#mask0_2066_2225)">
<path d="M19.4845 20.1538L13.223 13.8923C12.723 14.3179 12.148 14.6474 11.498 14.8808C10.848 15.1141 10.1948 15.2308 9.53849 15.2308C7.93682 15.2308 6.58124 14.6763 5.47174 13.5675C4.36241 12.4587 3.80774 11.1039 3.80774 9.50326C3.80774 7.90242 4.36216 6.54651 5.47099 5.43551C6.57982 4.32467 7.93457 3.76926 9.53524 3.76926C11.1361 3.76926 12.492 4.32392 13.603 5.43326C14.7138 6.54276 15.2692 7.89834 15.2692 9.50001C15.2692 10.1948 15.1462 10.8673 14.9 11.5173C14.6538 12.1673 14.3307 12.723 13.9307 13.1845L20.1922 19.4463L19.4845 20.1538ZM9.53849 14.2308C10.8653 14.2308 11.9855 13.774 12.899 12.8605C13.8125 11.9472 14.2692 10.827 14.2692 9.50001C14.2692 8.17301 13.8125 7.05284 12.899 6.13951C11.9855 5.22601 10.8653 4.76926 9.53849 4.76926C8.21149 4.76926 7.09132 5.22601 6.17799 6.13951C5.26449 7.05284 4.80774 8.17301 4.80774 9.50001C4.80774 10.827 5.26449 11.9472 6.17799 12.8605C7.09132 13.774 8.21149 14.2308 9.53849 14.2308Z" fill="black"/>
</g>
</svg>
