<svg width="24" height="24" viewBox="0 0 24 24" fill="none" xmlns="http://www.w3.org/2000/svg">
<mask id="mask0_312_117" style="mask-type:alpha" maskUnits="userSpaceOnUse" x="0" y="0" width="24" height="24">
<rect width="24" height="24" fill="#D9D9D9"/>
</mask>
<g mask="url(#mask0_312_117)">
<path d="M19.5422 20.577L13.2615 14.296C12.7615 14.7088 12.1865 15.0319 11.5365 15.2652C10.8865 15.4986 10.2141 15.6152 9.51924 15.6152C7.81007 15.6152 6.36357 15.0235 5.17974 13.84C3.99591 12.6565 3.40399 11.2103 3.40399 9.50149C3.40399 7.79282 3.99574 6.34615 5.17924 5.16149C6.36274 3.97699 7.80891 3.38474 9.51774 3.38474C11.2264 3.38474 12.6731 3.97665 13.8577 5.16048C15.0422 6.34432 15.6345 7.79082 15.6345 9.49999C15.6345 10.2142 15.5147 10.8962 15.275 11.5462C15.0352 12.1962 14.7152 12.7616 14.3152 13.2422L20.596 19.523L19.5422 20.577ZM9.51924 14.1155C10.8077 14.1155 11.8991 13.6683 12.7932 12.774C13.6876 11.8798 14.1347 10.7885 14.1347 9.49999C14.1347 8.21148 13.6876 7.12015 12.7932 6.22598C11.8991 5.33165 10.8077 4.88449 9.51924 4.88449C8.23074 4.88449 7.13941 5.33165 6.24524 6.22598C5.35091 7.12015 4.90374 8.21148 4.90374 9.49999C4.90374 10.7885 5.35091 11.8798 6.24524 12.774C7.13941 13.6683 8.23074 14.1155 9.51924 14.1155Z" fill="black"/>
</g>
</svg>
