<svg width="72" height="72" viewBox="0 0 72 72" fill="none" xmlns="http://www.w3.org/2000/svg">
<g clip-path="url(#clip0_2231_730)">
<path d="M22.3406 10.2049V21.6146L30.3165 26.2177L23.3043 30.2683L14.384 25.1192L4.5 30.824V42.2338L14.3807 47.9387L23.301 42.7895L32.2213 47.9387L42.1021 42.2338V30.824L34.1262 26.2209L42.1021 21.6178V10.2049L32.2213 4.5L22.3406 10.2049ZM22.3342 41.1191L14.3807 45.7126L6.42732 41.1191V31.9355L14.3807 27.342L22.3342 31.9355V41.1191ZM40.1748 41.1191L32.2213 45.7126L24.2679 41.1191V31.9355L32.2213 27.342L40.1748 31.9355V41.1191ZM40.1748 20.5032L32.2213 25.0967L24.2679 20.5032V11.3195L32.2213 6.72606L40.1748 11.3195V20.5032Z" fill="black"/>
<path d="M68.5035 30.8243L58.6227 25.1194L48.742 30.8243V42.2341L56.689 46.8243L48.742 51.4146V62.8243L58.6227 68.5292L68.5035 62.8243V51.4146L60.5565 46.8243L68.5035 42.2341V30.8243ZM66.5762 52.5228V61.7065L58.6227 66.2999L50.6693 61.7065V52.5228L58.6163 47.9325H58.6227H58.6292L66.5762 52.5228ZM64.3148 41.8229H62.32V32.9861L59.384 41.8229H57.6623L54.8388 33.0504V41.8229H52.9243V31.2323H56.2907L58.5874 38.9673L61.0608 31.2323H64.3148V41.8229Z" fill="black"/>
</g>
<defs>
<clipPath id="clip0_2231_730">
<rect width="64" height="64.0257" fill="white" transform="translate(4.5 4.5)"/>
</clipPath>
</defs>
</svg>
