<svg width="108" height="25" viewBox="0 0 108 25" fill="none" xmlns="http://www.w3.org/2000/svg">
<path d="M0 0.363678H6.17653L12.3883 19.4696L18.9959 0.363678H24.9525V24.4803H21.3935V3.59272L13.9104 24.4759H10.7121L3.55898 3.81268V24.4803H0V0.363678Z" fill="black"/>
<path d="M27.0247 19.9752C27.0247 16.1258 29.893 15.2548 33.7071 14.4189C36.615 13.803 38.3923 13.6183 38.7574 12.6768V12.4217C38.7574 11.0051 37.706 9.91411 35.0885 9.91411C32.4709 9.91411 31.1644 11.0755 31.0192 13.0024V13.2223H27.425C27.535 9.373 30.5837 7.04581 35.1237 7.04581C39.6637 7.04581 42.1317 9.00787 42.1317 13.3675V21.8316L42.1669 24.4844H38.7179V21.9064C37.5565 23.9389 35.414 24.9199 32.9417 24.9199C29.2727 24.9199 27.0203 22.9227 27.0203 19.9796L27.0247 19.9752ZM38.7574 17.5776V15.4703C37.706 16.1962 35.8891 16.4866 34.2174 16.8869C32.2554 17.3972 30.6584 18.0131 30.6584 19.83C30.6584 21.2465 31.7099 22.1924 33.6015 22.1924C36.1091 22.1924 38.4671 20.921 38.7574 17.5776Z" fill="black"/>
<path d="M44.8591 0.799377H48.7084V4.57832H44.8591V0.799377ZM44.9647 7.33664H48.5588V24.4805H44.9647V7.33664Z" fill="black"/>
<path d="M51.6508 -0.00125122H55.245V24.4805H51.6508V-0.00125122Z" fill="black"/>
<path d="M58.2942 -0.00125122H61.8884V24.4805H58.2942V-0.00125122Z" fill="black"/>
<path d="M64.0361 19.9752C64.0361 16.1258 66.9044 15.2548 70.7185 14.4189C73.6264 13.803 75.4037 13.6183 75.7688 12.6768V12.4217C75.7688 11.0051 74.7174 9.91411 72.0999 9.91411C69.4823 9.91411 68.1758 11.0755 68.0306 13.0024V13.2223H64.4364C64.5464 9.373 67.5951 7.04581 72.1351 7.04581C76.6751 7.04581 79.1431 9.00787 79.1431 13.3675V21.8316L79.1782 24.4844H75.7292V21.9064C74.5678 23.9389 72.4254 24.9199 69.953 24.9199C66.2841 24.9199 64.0317 22.9227 64.0317 19.9796L64.0361 19.9752ZM75.7688 17.5776V15.4703C74.7174 16.1962 72.9005 16.4866 71.2288 16.8869C69.2668 17.3972 67.6698 18.0131 67.6698 19.83C67.6698 21.2465 68.7213 22.1924 70.6129 22.1924C73.1205 22.1924 75.4785 20.921 75.7688 17.5776Z" fill="black"/>
<path d="M81.9804 7.33643H85.5393V10.4951C86.0497 8.49783 87.3914 7.19125 90.5149 7.19125H91.0604V10.6798H89.4239C86.3708 10.6798 85.5393 12.2064 85.5393 15.6906V24.4803H81.9804V7.33643Z" fill="black"/>
<path d="M91.021 15.9812C91.021 10.5349 94.2897 6.97154 98.7593 6.97154C101.122 6.97154 103.044 8.09774 104.28 9.91463V-0.00125122H107.769V24.4805H104.28V21.9729C103.084 23.7898 101.122 24.8412 98.7241 24.8412C94.3293 24.8412 91.0254 21.5374 91.0254 15.9768L91.021 15.9812ZM104.461 15.9812V15.6908C104.461 12.3122 102.644 10.0246 99.6304 10.0246C96.6169 10.0246 94.7648 12.167 94.7648 15.8712V16.1264C94.7648 19.7953 96.6917 21.7926 99.6304 21.7926C102.569 21.7926 104.461 19.395 104.461 15.9812Z" fill="black"/>
</svg>
